<svg width="854" height="735" viewBox="0 0 854 735" fill="none" xmlns="http://www.w3.org/2000/svg">
<path d="M442.897 232.459L437.998 231.455L436.995 236.353L441.893 237.357L442.897 232.459ZM482.451 240.564L481.447 245.463L486.346 246.466L487.349 241.568L482.451 240.564ZM483.178 237.016L478.291 235.962L478.285 235.987L478.28 236.012L483.178 237.016ZM515.331 202.172L513.694 197.447L513.68 197.452L513.667 197.457L515.331 202.172ZM416.773 132.277L411.899 131.164L410.76 136.149L415.769 137.176L416.773 132.277ZM459.354 141.003L458.35 145.901L463.072 146.869L464.212 142.186L459.354 141.003ZM483.113 175.778L484.877 180.456L484.888 180.452L483.113 175.778ZM443.624 228.911L438.728 227.893L438.727 227.9L438.726 227.907L443.624 228.911ZM479.95 283.551L484.84 284.592L484.848 284.555L484.855 284.517L479.95 283.551ZM429.854 273.285L434.745 274.326L434.753 274.289L434.76 274.252L429.854 273.285ZM441.893 237.357L481.447 245.463L483.455 235.666L443.9 227.561L441.893 237.357ZM487.349 241.568L488.077 238.02L478.28 236.012L477.553 239.561L487.349 241.568ZM488.066 238.07C490.129 228.503 493.216 222.385 497.547 217.904C501.936 213.362 508.032 210.049 516.994 206.887L513.667 197.457C504.108 200.83 496.318 204.785 490.356 210.955C484.335 217.185 480.607 225.221 478.291 235.962L488.066 238.07ZM516.968 206.896C528.351 202.952 538.524 197.551 546.553 189.671C554.64 181.735 560.321 171.508 563.021 158.332L553.225 156.324C550.899 167.674 546.129 176.077 539.549 182.534C532.911 189.048 524.201 193.807 513.694 197.447L516.968 206.896ZM563.021 158.332C567.063 138.611 562.307 121.081 550.781 107.42C539.361 93.884 521.609 84.4954 500.111 80.09L498.104 89.8864C518.038 93.9715 533.537 102.489 543.138 113.868C552.633 125.123 556.669 139.517 553.225 156.324L563.021 158.332ZM500.111 80.09C480.373 76.0452 460.931 77.4394 444.993 85.6998C428.908 94.0359 416.942 109.089 411.899 131.164L421.647 133.391C426.098 113.912 436.356 101.439 449.594 94.5782C462.979 87.6414 479.957 86.1678 498.104 89.8864L500.111 80.09ZM415.769 137.176L458.35 145.901L460.358 136.105L417.777 127.379L415.769 137.176ZM464.212 142.186C465.964 134.992 469.813 130.323 474.41 127.662C479.08 124.959 484.85 124.145 490.623 125.328L492.631 115.531C484.733 113.913 476.422 114.943 469.401 119.007C462.308 123.113 456.856 130.131 454.496 139.82L464.212 142.186ZM490.623 125.328C502.486 127.759 509.622 137.197 507.296 148.544L517.093 150.551C520.713 132.884 508.947 118.875 492.631 115.531L490.623 125.328ZM507.296 148.544C505.069 159.411 495.746 165.63 481.337 171.103L484.888 180.452C499.49 174.905 513.717 167.028 517.093 150.551L507.296 148.544ZM481.348 171.099C471.139 174.951 462.205 179.491 454.938 188.266C447.744 196.952 442.598 209.28 438.728 227.893L448.519 229.928C452.239 212.035 456.937 201.531 462.64 194.644C468.27 187.847 475.286 184.074 484.877 180.456L481.348 171.099ZM438.726 227.907L437.998 231.455L447.795 233.463L448.522 229.914L438.726 227.907ZM448.765 308.364C464.797 311.649 481.316 301.155 484.84 284.592L475.059 282.51C472.686 293.665 461.459 300.758 450.773 298.568L448.765 308.364ZM484.855 284.517C488.092 268.085 477.001 251.961 460.996 248.681L458.988 258.477C469.701 260.673 477.202 271.63 475.044 282.585L484.855 284.517ZM460.996 248.681C444.589 245.319 428.2 255.813 424.949 272.319L434.76 274.252C436.903 263.371 447.843 256.194 458.988 258.477L460.996 248.681ZM424.964 272.245C421.424 288.881 432.331 304.996 448.765 308.364L450.773 298.568C439.655 296.289 432.387 285.409 434.745 274.326L424.964 272.245Z" fill="#EBEBEB"/>
<path d="M120.796 570.555L116.243 572.621L118.309 577.174L122.862 575.109L120.796 570.555ZM151.437 556.654L153.503 561.207L158.056 559.142L155.99 554.588L151.437 556.654ZM150.19 553.905L145.616 555.924L145.626 555.948L145.637 555.971L150.19 553.905ZM154.81 514.666L150.71 511.805L150.701 511.817L150.693 511.829L154.81 514.666ZM54.1285 515.792L49.5299 517.755L51.5374 522.458L56.1943 520.345L54.1285 515.792ZM87.1141 500.827L89.1799 505.38L93.5687 503.389L91.7404 498.93L87.1141 500.827ZM120.161 512.643L124.338 515.392L124.345 515.382L120.161 512.643ZM119.549 567.807L114.99 569.859L114.993 569.866L114.996 569.872L119.549 567.807ZM170.798 586.866L175.367 584.834L175.351 584.799L175.335 584.765L170.798 586.866ZM131.991 604.471L136.56 602.44L136.545 602.405L136.529 602.371L131.991 604.471ZM122.862 575.109L153.503 561.207L149.371 552.101L118.73 566.002L122.862 575.109ZM155.99 554.588L154.743 551.839L145.637 555.971L146.884 558.72L155.99 554.588ZM154.764 551.886C151.511 544.517 150.648 539.04 151.346 534.099C152.055 529.074 154.462 523.981 158.927 517.504L150.693 511.829C145.869 518.827 142.47 525.435 141.444 532.701C140.406 540.051 141.878 547.455 145.616 555.924L154.764 551.886ZM158.911 517.527C164.7 509.231 168.982 500.493 170.565 491.088C172.162 481.603 170.958 471.758 166.262 461.409L157.156 465.541C161.08 474.191 161.95 482.025 160.704 489.428C159.444 496.911 155.968 504.269 150.71 511.805L158.911 517.527ZM166.262 461.409C159.229 445.907 147.237 436.238 132.521 432.607C117.965 429.014 101.203 431.427 84.428 439.037L88.5595 448.144C103.881 441.193 118.308 439.399 130.126 442.315C141.784 445.192 151.351 452.747 157.156 465.541L166.262 461.409ZM84.428 439.037C69.0144 446.03 56.4171 456.605 49.6068 470.193C42.7227 483.929 42.0353 500.196 49.5299 517.755L58.7272 513.829C52.2778 498.719 53.0992 485.543 58.5468 474.674C64.0683 463.657 74.6256 454.466 88.5595 448.144L84.428 439.037ZM56.1943 520.345L89.1799 505.38L85.0484 496.274L52.0628 511.239L56.1943 520.345ZM91.7404 498.93C89.4807 493.419 89.7965 488.623 91.4962 484.797C93.2297 480.895 96.5607 477.66 100.869 475.705L96.7372 466.599C90.4542 469.449 85.194 474.352 82.3575 480.737C79.4871 487.198 79.254 494.837 82.4879 502.724L91.7404 498.93ZM100.869 475.705C109.713 471.693 118.61 474.482 122.376 482.782L131.482 478.651C125.051 464.475 109.721 460.708 96.7372 466.599L100.869 475.705ZM122.376 482.782C125.998 490.766 123.005 499.173 115.978 509.904L124.345 515.382C131.484 504.478 137.47 491.848 131.482 478.651L122.376 482.782ZM115.985 509.895C110.956 517.536 107.064 525.118 106.446 534.806C105.836 544.38 108.46 555.358 114.99 569.859L124.108 565.754C117.881 551.922 115.964 542.684 116.426 535.442C116.88 528.316 119.672 522.482 124.338 515.392L115.985 509.895ZM114.996 569.872L116.243 572.621L125.349 568.49L124.102 565.741L114.996 569.872ZM162.263 619.625C175.096 613.803 181.288 598.15 175.367 584.834L166.229 588.897C169.903 597.16 165.996 606.951 158.132 610.518L162.263 619.625ZM175.335 584.765C169.277 571.678 153.408 566.063 140.599 571.874L144.731 580.98C152.619 577.401 162.547 580.945 166.26 588.966L175.335 584.765ZM140.599 571.874C127.482 577.825 121.364 593.416 127.454 606.572L136.529 602.371C132.847 594.418 136.504 584.712 144.731 580.98L140.599 571.874ZM127.423 606.503C133.373 619.886 149.121 625.588 162.263 619.625L158.132 610.518C149.931 614.239 140.204 610.636 136.56 602.44L127.423 606.503Z" fill="#EBEBEB"/>
<path d="M694.385 575.162L689.48 574.191L688.509 579.096L693.414 580.067L694.385 575.162ZM727.391 581.696L726.42 586.601L731.325 587.572L732.296 582.667L727.391 581.696ZM727.978 578.735L723.083 577.714L723.078 577.739L723.073 577.764L727.978 578.735ZM754.577 549.52L752.908 544.807L752.895 544.812L752.882 544.817L754.577 549.52ZM672.059 491.824L667.177 490.743L666.072 495.736L671.088 496.729L672.059 491.824ZM707.591 498.859L706.62 503.764L711.348 504.7L712.457 500.01L707.591 498.859ZM727.583 527.705L729.379 532.371L729.389 532.367L727.583 527.705ZM694.971 572.201L690.069 571.216L690.068 571.223L690.067 571.23L694.971 572.201ZM725.546 617.532L730.443 618.54L730.451 618.502L730.458 618.465L725.546 617.532ZM683.744 609.256L688.641 610.264L688.649 610.226L688.656 610.189L683.744 609.256ZM693.414 580.067L726.42 586.601L728.363 576.792L695.356 570.257L693.414 580.067ZM732.296 582.667L732.882 579.706L723.073 577.764L722.487 580.725L732.296 582.667ZM732.872 579.757C734.518 571.871 737.004 566.915 740.448 563.304C743.95 559.631 748.871 556.892 756.272 554.224L752.882 544.817C744.885 547.698 738.275 551.092 733.211 556.403C728.088 561.775 724.974 568.652 723.083 577.714L732.872 579.757ZM756.246 554.234C765.782 550.858 774.351 546.246 781.113 539.521C787.933 532.738 792.685 524.032 794.892 512.885L785.083 510.943C783.238 520.261 779.384 527.137 774.062 532.431C768.682 537.781 761.571 541.74 752.908 544.807L756.246 554.234ZM794.892 512.885C798.198 496.186 794.076 481.343 784.225 469.824C774.48 458.429 759.447 450.632 741.378 447.055L739.435 456.865C755.94 460.132 768.714 467.072 776.625 476.323C784.43 485.449 787.811 497.161 785.083 510.943L794.892 512.885ZM741.378 447.055C724.774 443.768 708.375 445.032 694.928 452.116C681.334 459.277 671.305 472.103 667.177 490.743L676.941 492.905C680.493 476.865 688.831 466.63 699.588 460.964C710.491 455.221 724.426 453.893 739.435 456.865L741.378 447.055ZM671.088 496.729L706.62 503.764L708.562 493.954L673.03 486.919L671.088 496.729ZM712.457 500.01C713.828 494.213 716.877 490.497 720.486 488.376C724.167 486.213 728.758 485.521 733.399 486.44L735.341 476.63C728.573 475.291 721.442 476.215 715.419 479.755C709.324 483.337 704.687 489.413 702.725 497.708L712.457 500.01ZM733.399 486.44C742.926 488.326 748.537 495.773 746.766 504.714L756.576 506.656C759.599 491.387 749.328 479.4 735.341 476.63L733.399 486.44ZM746.766 504.714C745.064 513.315 737.736 518.408 725.776 523.043L729.389 532.367C741.542 527.657 753.761 520.873 756.576 506.656L746.766 504.714ZM725.787 523.038C717.25 526.324 709.671 530.223 703.529 537.741C697.459 545.17 693.203 555.624 690.069 571.216L699.873 573.186C702.862 558.314 706.682 549.687 711.273 544.068C715.791 538.538 721.457 535.42 729.379 532.371L725.787 523.038ZM690.067 571.23L689.48 574.191L699.29 576.133L699.876 573.172L690.067 571.23ZM699.536 639.2C713.359 641.936 727.506 632.813 730.443 618.54L720.649 616.524C718.826 625.381 709.949 631.067 701.478 629.39L699.536 639.2ZM730.458 618.465C733.151 604.297 723.516 590.493 709.719 587.762L707.777 597.571C716.275 599.254 722.284 607.915 720.634 616.598L730.458 618.465ZM709.719 587.762C695.59 584.964 681.538 594.08 678.832 608.322L688.656 610.189C690.292 601.58 698.916 595.817 707.777 597.571L709.719 587.762ZM678.846 608.248C675.894 622.594 685.379 636.397 699.536 639.2L701.478 629.39C692.644 627.641 686.833 619.049 688.641 610.264L678.846 608.248Z" fill="#EBEBEB"/>
<path d="M298.581 353C298.581 341.954 307.536 333 318.581 333H571C582.046 333 591 341.954 591 353V382C591 393.046 582.046 402 571 402H298.581V353Z" fill="#C4C4C4"/>
<path d="M746.419 78C746.419 66.9543 737.464 58 726.419 58H474C462.954 58 454 66.9543 454 78V107C454 118.046 462.954 127 474 127H746.419V78Z" fill="#C4C4C4"/>
<path d="M764 127H746V118L764 127Z" fill="#C4C4C4"/>
<path d="M259.733 624C259.733 612.954 268.687 604 279.733 604H478C489.046 604 498 612.954 498 624V639C498 650.046 489.046 659 478 659H259.733V624Z" fill="#C4C4C4"/>
<path d="M238 659H260V652L238 659Z" fill="#C4C4C4"/>
<path d="M754.419 533C754.419 521.954 745.464 513 734.419 513H482C470.954 513 462 521.954 462 533V562C462 573.046 470.954 582 482 582H754.419V533Z" fill="#C4C4C4"/>
<path d="M773 582H754V573L773 582Z" fill="#C4C4C4"/>
<path d="M776.419 227C776.419 215.954 767.464 207 756.419 207H504C492.954 207 484 215.954 484 227V251C484 262.046 492.954 271 504 271H776.419V227Z" fill="#C4C4C4"/>
<path d="M791 271H776.419V262.933L791 271Z" fill="#C4C4C4"/>
<path d="M486.219 90H487.69L483.435 84.2926L487.551 79.8182H486.08L482.003 84.233H481.466V79.8182H480.233V90H481.466V85.3267H482.719L486.219 90ZM491.372 90.179C492.704 90.179 493.4 89.4631 493.639 88.9659H493.699V90H494.872V84.9688C494.872 82.5426 493.022 82.2642 492.048 82.2642C490.895 82.2642 489.582 82.6619 488.985 84.054L490.099 84.4517C490.358 83.8949 490.969 83.2983 492.088 83.2983C493.167 83.2983 493.699 83.87 493.699 84.8494V84.8892C493.699 85.456 493.122 85.4062 491.73 85.5852C490.313 85.7692 488.767 86.0824 488.767 87.8324C488.767 89.3239 489.92 90.179 491.372 90.179ZM491.551 89.125C490.616 89.125 489.94 88.7074 489.94 87.892C489.94 86.9972 490.755 86.7188 491.67 86.5994C492.167 86.5398 493.5 86.4006 493.699 86.1619V87.2358C493.699 88.1903 492.943 89.125 491.551 89.125ZM497.013 90H498.187V86.7784H499.241L501.746 90H503.258L500.135 86.0426L503.218 82.3636H501.706L498.962 85.6847H498.187V82.3636H497.013V90ZM507.321 90.1591C509.389 90.1591 510.781 88.5881 510.781 86.2216C510.781 83.8352 509.389 82.2642 507.321 82.2642C505.252 82.2642 503.86 83.8352 503.86 86.2216C503.86 88.5881 505.252 90.1591 507.321 90.1591ZM507.321 89.1051C505.75 89.1051 505.034 87.7528 505.034 86.2216C505.034 84.6903 505.75 83.3182 507.321 83.3182C508.892 83.3182 509.608 84.6903 509.608 86.2216C509.608 87.7528 508.892 89.1051 507.321 89.1051ZM513.745 88.2699V82.3636H512.572V90H513.944L517.603 84.0938V90H518.776V82.3636H517.424L513.745 88.2699ZM516.649 79.8182C516.649 80.3352 516.37 80.7926 515.674 80.7926C514.978 80.7926 514.72 80.3352 514.72 79.8182H513.626C513.626 80.892 514.421 81.6477 515.674 81.6477C516.947 81.6477 517.742 80.892 517.742 79.8182H516.649ZM524.048 92.1875H525.221V90H530.869V92.1875H532.042V88.9062H530.869V82.3636H526.016L525.758 85.3864C525.574 87.5241 525.3 88.2599 524.684 88.9062H524.048V92.1875ZM526.016 88.9062C526.553 88.2003 526.747 86.9822 526.911 85.3864L527.11 83.4574H529.695V88.9062H526.016ZM536.702 90.1591C538.77 90.1591 540.162 88.5881 540.162 86.2216C540.162 83.8352 538.77 82.2642 536.702 82.2642C534.633 82.2642 533.241 83.8352 533.241 86.2216C533.241 88.5881 534.633 90.1591 536.702 90.1591ZM536.702 89.1051C535.131 89.1051 534.415 87.7528 534.415 86.2216C534.415 84.6903 535.131 83.3182 536.702 83.3182C538.273 83.3182 538.988 84.6903 538.988 86.2216C538.988 87.7528 538.273 89.1051 536.702 89.1051ZM541.277 90H541.674C543.365 90 543.852 88.6875 543.961 86.1818L544.081 83.4574H546.885V90H548.058V82.3636H542.967L542.828 85.7443C542.728 88.3097 542.47 88.9062 541.555 88.9062H541.277V90ZM549.733 90H551.145L553.75 86.7188H554.347V90H555.52V86.7188H556.117L558.702 90H560.114L557.032 86.1222L560.074 82.3636H558.682L556.137 85.625H555.52V82.3636H554.347V85.625H553.711L551.165 82.3636H549.773L552.836 86.1222L549.733 90ZM564.678 90.1591C566.229 90.1591 567.363 89.3835 567.721 88.2301L566.587 87.9119C566.289 88.7074 565.598 89.1051 564.678 89.1051C563.301 89.1051 562.351 88.2152 562.297 86.5795H567.84V86.0824C567.84 83.2386 566.15 82.2642 564.559 82.2642C562.49 82.2642 561.118 83.8949 561.118 86.2415C561.118 88.5881 562.471 90.1591 564.678 90.1591ZM562.297 85.5653C562.376 84.3771 563.216 83.3182 564.559 83.3182C565.831 83.3182 566.647 84.2727 566.647 85.5653H562.297ZM570.798 82.3636H569.625V90H570.798V86.7386H574.457V90H575.63V82.3636H574.457V85.6449H570.798V82.3636ZM587.378 79.5C587.005 79.8132 586.449 79.8132 585.668 79.8082C585.414 79.8082 585.136 79.8082 584.833 79.8182C582.506 79.8778 581.353 81.6477 581.353 85.0483V85.8636C581.353 88.6875 582.725 90.1591 584.773 90.1591C586.816 90.1591 588.174 88.6776 588.174 86.2812C588.174 83.875 586.797 82.6023 585.012 82.6023C583.963 82.6023 582.983 83.0398 582.466 83.9943H582.367C582.526 82.0256 583.262 80.9716 584.853 80.9119C586.265 80.8523 587.279 80.892 587.975 80.2159L587.378 79.5ZM584.773 89.1051C583.381 89.1051 582.526 87.9915 582.526 86.2812C582.551 84.6108 583.391 83.6562 584.753 83.6562C586.15 83.6562 587 84.6108 587 86.2812C587 88.0014 586.155 89.1051 584.773 89.1051ZM591.142 85.1278V82.3636H589.968V90H593.17C594.96 90 595.934 88.9062 595.934 87.5341C595.934 86.142 594.96 85.1278 593.17 85.1278H591.142ZM597.147 90H598.321V82.3636H597.147V90ZM591.142 86.2216H593.17C594.1 86.2216 594.761 86.7884 594.761 87.5938C594.761 88.3643 594.1 88.9062 593.17 88.9062H591.142V86.2216ZM600.031 83.4574H602.556V90H603.73V83.4574H606.235V82.3636H600.031V83.4574ZM609.12 85.1278V82.3636H607.947V90H611.149C612.938 90 613.913 88.9062 613.913 87.5341C613.913 86.142 612.938 85.1278 611.149 85.1278H609.12ZM609.12 86.2216H611.149C612.078 86.2216 612.74 86.7884 612.74 87.5938C612.74 88.3643 612.078 88.9062 611.149 88.9062H609.12V86.2216ZM619.636 90H623.236C624.787 90 625.722 89.125 625.722 87.9517C625.722 86.7536 624.812 86.1072 623.972 85.983C624.832 85.804 625.443 85.3217 625.443 84.392C625.443 83.174 624.399 82.3636 622.759 82.3636H619.636V90ZM620.75 88.9261V86.5795H623.236C624.041 86.5795 624.528 87.0618 624.528 87.8523C624.528 88.5185 624.041 88.9261 623.236 88.9261H620.75ZM620.75 85.5653V83.4375H622.759C623.698 83.4375 624.27 83.8303 624.27 84.4716C624.27 85.1527 623.698 85.5653 622.759 85.5653H620.75ZM630.699 90.1591C632.251 90.1591 633.384 89.3835 633.742 88.2301L632.608 87.9119C632.31 88.7074 631.619 89.1051 630.699 89.1051C629.322 89.1051 628.373 88.2152 628.318 86.5795H633.861V86.0824C633.861 83.2386 632.171 82.2642 630.58 82.2642C628.512 82.2642 627.14 83.8949 627.14 86.2415C627.14 88.5881 628.492 90.1591 630.699 90.1591ZM628.318 85.5653C628.398 84.3771 629.238 83.3182 630.58 83.3182C631.853 83.3182 632.668 84.2727 632.668 85.5653H628.318ZM638.748 90.1591C640.439 90.1591 641.552 89.125 641.751 87.7727H640.578C640.359 88.608 639.663 89.1051 638.748 89.1051C637.356 89.1051 636.461 87.9517 636.461 86.1818C636.461 84.4517 637.376 83.3182 638.748 83.3182C639.782 83.3182 640.399 83.9545 640.578 84.6506H641.751C641.552 83.2188 640.339 82.2642 638.729 82.2642C636.66 82.2642 635.288 83.8949 635.288 86.2216C635.288 88.5085 636.601 90.1591 638.748 90.1591ZM648.16 92.8636C649.219 92.8636 649.964 92.3018 650.407 91.1136L653.658 82.3835L652.376 82.3636L650.268 88.4489H650.188L648.08 82.3636H646.807L649.631 90.0398L649.412 90.6364C648.985 91.7997 648.458 91.9091 647.603 91.6903L647.305 92.7244C647.424 92.7841 647.762 92.8636 648.16 92.8636ZM658.333 92.1875H659.506V90H665.154V92.1875H666.327V88.9062H665.154V82.3636H660.301L660.043 85.3864C659.859 87.5241 659.586 88.2599 658.969 88.9062H658.333V92.1875ZM660.301 88.9062C660.838 88.2003 661.032 86.9822 661.196 85.3864L661.395 83.4574H663.98V88.9062H660.301ZM671.086 90.1591C672.637 90.1591 673.771 89.3835 674.129 88.2301L672.995 87.9119C672.697 88.7074 672.006 89.1051 671.086 89.1051C669.709 89.1051 668.759 88.2152 668.705 86.5795H674.248V86.0824C674.248 83.2386 672.558 82.2642 670.967 82.2642C668.899 82.2642 667.526 83.8949 667.526 86.2415C667.526 88.5881 668.879 90.1591 671.086 90.1591ZM668.705 85.5653C668.784 84.3771 669.624 83.3182 670.967 83.3182C672.24 83.3182 673.055 84.2727 673.055 85.5653H668.705ZM676.033 90H679.632C681.183 90 682.118 89.125 682.118 87.9517C682.118 86.7536 681.208 86.1072 680.368 85.983C681.228 85.804 681.84 85.3217 681.84 84.392C681.84 83.174 680.796 82.3636 679.155 82.3636H676.033V90ZM677.146 88.9261V86.5795H679.632C680.438 86.5795 680.925 87.0618 680.925 87.8523C680.925 88.5185 680.438 88.9261 679.632 88.9261H677.146ZM677.146 85.5653V83.4375H679.155C680.095 83.4375 680.666 83.8303 680.666 84.4716C680.666 85.1527 680.095 85.5653 679.155 85.5653H677.146ZM686.996 90.1591C689.065 90.1591 690.457 88.5881 690.457 86.2216C690.457 83.8352 689.065 82.2642 686.996 82.2642C684.928 82.2642 683.536 83.8352 683.536 86.2216C683.536 88.5881 684.928 90.1591 686.996 90.1591ZM686.996 89.1051C685.425 89.1051 684.71 87.7528 684.71 86.2216C684.71 84.6903 685.425 83.3182 686.996 83.3182C688.567 83.3182 689.283 84.6903 689.283 86.2216C689.283 87.7528 688.567 89.1051 686.996 89.1051ZM698.134 82.3636H696.961V86.2365C696.394 86.4006 695.812 86.5 695.111 86.5C694.157 86.5 693.421 85.9631 693.421 84.7898V82.3438H692.248V84.7898C692.248 86.6591 693.381 87.5938 695.111 87.5938C695.832 87.5938 696.409 87.4993 696.961 87.3352V90H698.134V82.3636ZM700.287 90H701.46V86.7784H702.514L705.02 90H706.531L703.409 86.0426L706.491 82.3636H704.98L702.236 85.6847H701.46V82.3636H700.287V90ZM708.98 88.2699V82.3636H707.806V90H709.178L712.838 84.0938V90H714.011V82.3636H712.659L708.98 88.2699ZM480.074 107H483.673C485.224 107 486.159 106.125 486.159 104.952C486.159 103.754 485.249 103.107 484.409 102.983C485.269 102.804 485.881 102.322 485.881 101.392C485.881 100.174 484.837 99.3636 483.196 99.3636H480.074V107ZM481.188 105.926V103.58H483.673C484.479 103.58 484.966 104.062 484.966 104.852C484.966 105.518 484.479 105.926 483.673 105.926H481.188ZM481.188 102.565V100.438H483.196C484.136 100.438 484.707 100.83 484.707 101.472C484.707 102.153 484.136 102.565 483.196 102.565H481.188ZM495.293 107.139C497.267 107.139 498.733 105.901 498.733 104.236C498.733 102.943 497.968 102.004 496.685 101.79V101.71C497.714 101.397 498.356 100.552 498.356 99.4034C498.356 97.9616 497.217 96.679 495.333 96.679C493.573 96.679 492.111 97.7628 492.052 99.3636H493.245C493.29 98.3494 494.254 97.7528 495.313 97.7528C496.437 97.7528 497.162 98.4339 497.162 99.4631C497.162 100.537 496.322 101.233 495.114 101.233H494.299V102.327H495.114C496.66 102.327 497.52 103.112 497.52 104.236C497.52 105.315 496.581 106.045 495.273 106.045C494.095 106.045 493.16 105.439 493.086 104.455H491.833C491.907 106.055 493.319 107.139 495.293 107.139ZM505.898 99.3636H504.724V107H505.898V103.739H509.557V107H510.73V99.3636H509.557V102.645H505.898V99.3636ZM516.074 107.159C517.626 107.159 518.759 106.384 519.117 105.23L517.983 104.912C517.685 105.707 516.994 106.105 516.074 106.105C514.697 106.105 513.748 105.215 513.693 103.58H519.236V103.082C519.236 100.239 517.546 99.2642 515.955 99.2642C513.887 99.2642 512.515 100.895 512.515 103.241C512.515 105.588 513.867 107.159 516.074 107.159ZM513.693 102.565C513.773 101.377 514.613 100.318 515.955 100.318C517.228 100.318 518.043 101.273 518.043 102.565H513.693ZM520.206 109.188H521.379V107H527.027V109.188H528.2V105.906H527.027V99.3636H522.175L521.916 102.386C521.732 104.524 521.459 105.26 520.842 105.906H520.206V109.188ZM522.175 105.906C522.711 105.2 522.905 103.982 523.069 102.386L523.268 100.457H525.854V105.906H522.175ZM532.959 107.159C534.51 107.159 535.644 106.384 536.002 105.23L534.868 104.912C534.57 105.707 533.879 106.105 532.959 106.105C531.582 106.105 530.632 105.215 530.578 103.58H536.121V103.082C536.121 100.239 534.431 99.2642 532.84 99.2642C530.772 99.2642 529.4 100.895 529.4 103.241C529.4 105.588 530.752 107.159 532.959 107.159ZM530.578 102.565C530.657 101.377 531.498 100.318 532.84 100.318C534.113 100.318 534.928 101.273 534.928 102.565H530.578ZM537.23 107H537.627C539.318 107 539.805 105.688 539.914 103.182L540.034 100.457H542.838V107H544.011V99.3636H538.92L538.781 102.744C538.681 105.31 538.423 105.906 537.508 105.906H537.23V107ZM547.337 105.27V99.3636H546.164V107H547.536L551.195 101.094V107H552.368V99.3636H551.016L547.337 105.27ZM556.048 104.136H557.242V104.077C557.262 102.844 557.58 102.307 558.455 101.76C559.33 101.228 559.847 100.462 559.847 99.3636C559.847 97.8125 558.713 96.679 556.963 96.679C555.352 96.679 554.075 97.6733 554 99.3636H555.253C555.328 98.1903 556.148 97.7131 556.963 97.7131C557.898 97.7131 558.654 98.3295 558.654 99.304C558.654 100.094 558.201 100.661 557.619 101.014C556.645 101.606 556.063 102.183 556.048 104.077V104.136ZM556.685 107.08C557.177 107.08 557.58 106.677 557.58 106.185C557.58 105.692 557.177 105.29 556.685 105.29C556.193 105.29 555.79 105.692 555.79 106.185C555.79 106.677 556.193 107.08 556.685 107.08Z" fill="#5E5E5E"/>
<path d="M526.77 237.139H527.426C528.977 237.139 529.435 236.304 529.852 235.349L533.372 226.818H532.06L529.494 233.142L526.69 226.818H525.358L528.878 234.614L528.719 234.991C528.5 235.489 528.142 235.986 527.406 235.986H526.77V237.139ZM538.748 237H539.921V230.457H543.58V237H544.753V229.364H538.748V237ZM549.998 237.159C552.067 237.159 553.459 235.588 553.459 233.222C553.459 230.835 552.067 229.264 549.998 229.264C547.93 229.264 546.538 230.835 546.538 233.222C546.538 235.588 547.93 237.159 549.998 237.159ZM549.998 236.105C548.427 236.105 547.711 234.753 547.711 233.222C547.711 231.69 548.427 230.318 549.998 230.318C551.569 230.318 552.285 231.69 552.285 233.222C552.285 234.753 551.569 236.105 549.998 236.105ZM554.434 239.188H555.608V237H561.255V239.188H562.429V235.906H561.255V229.364H556.403L556.145 232.386C555.961 234.524 555.687 235.26 555.071 235.906H554.434V239.188ZM556.403 235.906C556.94 235.2 557.134 233.982 557.298 232.386L557.497 230.457H560.082V235.906H556.403ZM563.986 239.864H565.159V235.827H565.259C565.517 236.244 566.014 237.159 567.486 237.159C569.395 237.159 570.727 235.628 570.727 233.202C570.727 230.795 569.395 229.264 567.466 229.264C565.975 229.264 565.517 230.179 565.259 230.577H565.119V229.364H563.986V239.864ZM565.139 233.182C565.139 231.472 565.895 230.318 567.327 230.318C568.818 230.318 569.554 231.571 569.554 233.182C569.554 234.812 568.798 236.105 567.327 236.105C565.915 236.105 565.139 234.912 565.139 233.182ZM572.999 239.864C574.058 239.864 574.804 239.302 575.247 238.114L578.498 229.384L577.215 229.364L575.107 235.449H575.028L572.92 229.364H571.647L574.471 237.04L574.252 237.636C573.825 238.8 573.298 238.909 572.443 238.69L572.144 239.724C572.264 239.784 572.602 239.864 572.999 239.864ZM579.573 237H580.985L583.59 233.719H584.187V237H585.36V233.719H585.957L588.542 237H589.954L586.871 233.122L589.914 229.364H588.522L585.977 232.625H585.36V229.364H584.187V232.625H583.55L581.005 229.364H579.613L582.675 233.122L579.573 237ZM591.631 237H592.804V233.778H593.858L596.363 237H597.875L594.753 233.043L597.835 229.364H596.324L593.579 232.685H592.804V229.364H591.631V237ZM600.323 235.27V229.364H599.15V237H600.522L604.181 231.094V237H605.355V229.364H604.002L600.323 235.27ZM614.543 237.159C616.234 237.159 617.347 236.125 617.546 234.773H616.373C616.154 235.608 615.458 236.105 614.543 236.105C613.151 236.105 612.256 234.952 612.256 233.182C612.256 231.452 613.171 230.318 614.543 230.318C615.577 230.318 616.194 230.955 616.373 231.651H617.546C617.347 230.219 616.134 229.264 614.523 229.264C612.455 229.264 611.083 230.895 611.083 233.222C611.083 235.509 612.396 237.159 614.543 237.159ZM620.435 232.128V229.364H619.261V237H622.463C624.253 237 625.227 235.906 625.227 234.534C625.227 233.142 624.253 232.128 622.463 232.128H620.435ZM626.44 237H627.614V229.364H626.44V237ZM620.435 233.222H622.463C623.393 233.222 624.054 233.788 624.054 234.594C624.054 235.364 623.393 235.906 622.463 235.906H620.435V233.222ZM630.935 229.364H629.761V237H630.935V233.739H634.594V237H635.767V229.364H634.594V232.645H630.935V229.364ZM641.847 237H645.447C646.998 237 647.933 236.125 647.933 234.952C647.933 233.754 647.023 233.107 646.183 232.983C647.043 232.804 647.654 232.322 647.654 231.392C647.654 230.174 646.61 229.364 644.969 229.364H641.847V237ZM642.961 235.926V233.58H645.447C646.252 233.58 646.739 234.062 646.739 234.852C646.739 235.518 646.252 235.926 645.447 235.926H642.961ZM642.961 232.565V230.438H644.969C645.909 230.438 646.481 230.83 646.481 231.472C646.481 232.153 645.909 232.565 644.969 232.565H642.961ZM650.882 232.128V229.364H649.709V237H652.91C654.7 237 655.675 235.906 655.675 234.534C655.675 233.142 654.7 232.128 652.91 232.128H650.882ZM656.888 237H658.061V229.364H656.888V237ZM650.882 233.222H652.91C653.84 233.222 654.501 233.788 654.501 234.594C654.501 235.364 653.84 235.906 652.91 235.906H650.882V233.222ZM660.209 229.364V237H669.496V229.364H668.322V235.906H665.439V229.364H664.265V235.906H661.382V229.364H660.209ZM674.84 237.159C676.391 237.159 677.525 236.384 677.883 235.23L676.749 234.912C676.451 235.707 675.76 236.105 674.84 236.105C673.463 236.105 672.513 235.215 672.459 233.58H678.002V233.082C678.002 230.239 676.312 229.264 674.721 229.264C672.653 229.264 671.28 230.895 671.28 233.241C671.28 235.588 672.633 237.159 674.84 237.159ZM672.459 232.565C672.538 231.377 673.378 230.318 674.721 230.318C675.993 230.318 676.809 231.273 676.809 232.565H672.459ZM687.9 235.409L685.275 229.364H683.724V237H684.898V231.049L687.423 237H688.378L690.903 231.158V237H692.077V229.364H690.565L687.9 235.409ZM697.327 237.159C699.395 237.159 700.787 235.588 700.787 233.222C700.787 230.835 699.395 229.264 697.327 229.264C695.258 229.264 693.866 230.835 693.866 233.222C693.866 235.588 695.258 237.159 697.327 237.159ZM697.327 236.105C695.756 236.105 695.04 234.753 695.04 233.222C695.04 231.69 695.756 230.318 697.327 230.318C698.898 230.318 699.613 231.69 699.613 233.222C699.613 234.753 698.898 236.105 697.327 236.105ZM705.779 237.159C707.331 237.159 708.464 236.384 708.822 235.23L707.689 234.912C707.39 235.707 706.699 236.105 705.779 236.105C704.402 236.105 703.453 235.215 703.398 233.58H708.941V233.082C708.941 230.239 707.251 229.264 705.66 229.264C703.592 229.264 702.22 230.895 702.22 233.241C702.22 235.588 703.572 237.159 705.779 237.159ZM703.398 232.565C703.478 231.377 704.318 230.318 705.66 230.318C706.933 230.318 707.748 231.273 707.748 232.565H703.398ZM715.439 229.364H710.726V237H711.9V230.457H715.439V229.364ZM719.858 237.159C721.926 237.159 723.318 235.588 723.318 233.222C723.318 230.835 721.926 229.264 719.858 229.264C717.79 229.264 716.398 230.835 716.398 233.222C716.398 235.588 717.79 237.159 719.858 237.159ZM719.858 236.105C718.287 236.105 717.571 234.753 717.571 233.222C717.571 231.69 718.287 230.318 719.858 230.318C721.429 230.318 722.145 231.69 722.145 233.222C722.145 234.753 721.429 236.105 719.858 236.105ZM726.859 235.608H725.586L725.527 236.165C725.382 237.512 725.099 238.854 724.97 239.486H725.865C726.103 238.81 726.61 237.278 726.779 236.145L726.859 235.608ZM529.176 254.159C530.866 254.159 531.98 253.125 532.179 251.773H531.006C530.787 252.608 530.091 253.105 529.176 253.105C527.784 253.105 526.889 251.952 526.889 250.182C526.889 248.452 527.804 247.318 529.176 247.318C530.21 247.318 530.827 247.955 531.006 248.651H532.179C531.98 247.219 530.767 246.264 529.156 246.264C527.088 246.264 525.716 247.895 525.716 250.222C525.716 252.509 527.028 254.159 529.176 254.159ZM533.293 247.457H535.818V254H536.991V247.457H539.497V246.364H533.293V247.457ZM543.914 254.159C545.983 254.159 547.375 252.588 547.375 250.222C547.375 247.835 545.983 246.264 543.914 246.264C541.846 246.264 540.454 247.835 540.454 250.222C540.454 252.588 541.846 254.159 543.914 254.159ZM543.914 253.105C542.343 253.105 541.627 251.753 541.627 250.222C541.627 248.69 542.343 247.318 543.914 247.318C545.485 247.318 546.201 248.69 546.201 250.222C546.201 251.753 545.485 253.105 543.914 253.105ZM550.339 252.27V246.364H549.166V254H550.538L554.197 248.094V254H555.37V246.364H554.018L550.339 252.27ZM556.48 247.457H559.006V254H560.179V247.457H562.685V246.364H556.48V247.457ZM567.657 254H568.055C569.746 254 570.233 252.688 570.342 250.182L570.461 247.457H573.265V254H574.439V246.364H569.348L569.209 249.744C569.109 252.31 568.851 252.906 567.936 252.906H567.657V254ZM577.765 252.27V246.364H576.591V254H577.964L581.623 248.094V254H582.796V246.364H581.444L577.765 252.27ZM588.882 254H590.056V247.457H593.715V254H594.888V246.364H588.882V254ZM600.233 254.159C601.784 254.159 602.917 253.384 603.275 252.23L602.142 251.912C601.843 252.707 601.152 253.105 600.233 253.105C598.855 253.105 597.906 252.215 597.851 250.58H603.395V250.082C603.395 247.239 601.704 246.264 600.113 246.264C598.045 246.264 596.673 247.895 596.673 250.241C596.673 252.588 598.025 254.159 600.233 254.159ZM597.851 249.565C597.931 248.377 598.771 247.318 600.113 247.318C601.386 247.318 602.201 248.273 602.201 249.565H597.851ZM605.179 256.864H606.353V252.827H606.452C606.711 253.244 607.208 254.159 608.679 254.159C610.588 254.159 611.921 252.628 611.921 250.202C611.921 247.795 610.588 246.264 608.659 246.264C607.168 246.264 606.711 247.179 606.452 247.577H606.313V246.364H605.179V256.864ZM606.333 250.182C606.333 248.472 607.088 247.318 608.52 247.318C610.012 247.318 610.748 248.571 610.748 250.182C610.748 251.812 609.992 253.105 608.52 253.105C607.108 253.105 606.333 251.912 606.333 250.182ZM616.912 254.159C618.463 254.159 619.597 253.384 619.955 252.23L618.821 251.912C618.523 252.707 617.832 253.105 616.912 253.105C615.535 253.105 614.586 252.215 614.531 250.58H620.074V250.082C620.074 247.239 618.384 246.264 616.793 246.264C614.725 246.264 613.353 247.895 613.353 250.241C613.353 252.588 614.705 254.159 616.912 254.159ZM614.531 249.565C614.61 248.377 615.451 247.318 616.793 247.318C618.066 247.318 618.881 248.273 618.881 249.565H614.531ZM621.177 254H622.589L625.194 250.719H625.79V254H626.964V250.719H627.56L630.145 254H631.557L628.475 250.122L631.518 246.364H630.126L627.58 249.625H626.964V246.364H625.79V249.625H625.154L622.608 246.364H621.216L624.279 250.122L621.177 254ZM634.407 252.27V246.364H633.234V254H634.606L638.265 248.094V254H639.439V246.364H638.086L634.407 252.27ZM641.588 254H645.187C646.738 254 647.673 253.125 647.673 251.952C647.673 250.754 646.763 250.107 645.923 249.983C646.783 249.804 647.394 249.322 647.394 248.392C647.394 247.174 646.35 246.364 644.71 246.364H641.588V254ZM642.701 252.926V250.58H645.187C645.992 250.58 646.48 251.062 646.48 251.852C646.48 252.518 645.992 252.926 645.187 252.926H642.701ZM642.701 249.565V247.438H644.71C645.649 247.438 646.221 247.83 646.221 248.472C646.221 249.153 645.649 249.565 644.71 249.565H642.701ZM651.696 254.179C653.028 254.179 653.724 253.463 653.963 252.966H654.023V254H655.196V248.969C655.196 246.543 653.347 246.264 652.372 246.264C651.219 246.264 649.906 246.662 649.31 248.054L650.423 248.452C650.682 247.895 651.293 247.298 652.412 247.298C653.491 247.298 654.023 247.87 654.023 248.849V248.889C654.023 249.456 653.446 249.406 652.054 249.585C650.637 249.769 649.091 250.082 649.091 251.832C649.091 253.324 650.244 254.179 651.696 254.179ZM651.875 253.125C650.94 253.125 650.264 252.707 650.264 251.892C650.264 250.997 651.08 250.719 651.994 250.599C652.491 250.54 653.824 250.401 654.023 250.162V251.236C654.023 252.19 653.267 253.125 651.875 253.125ZM656.298 247.457H658.824V254H659.997V247.457H662.503V246.364H656.298V247.457ZM665.388 249.128V246.364H664.214V254H667.416C669.206 254 670.18 252.906 670.18 251.534C670.18 250.142 669.206 249.128 667.416 249.128H665.388ZM665.388 250.222H667.416C668.346 250.222 669.007 250.788 669.007 251.594C669.007 252.364 668.346 252.906 667.416 252.906H665.388V250.222ZM673.498 251.136H674.691V251.077C674.711 249.844 675.029 249.307 675.904 248.76C676.779 248.228 677.296 247.462 677.296 246.364C677.296 244.812 676.162 243.679 674.412 243.679C672.802 243.679 671.524 244.673 671.449 246.364H672.702C672.777 245.19 673.597 244.713 674.412 244.713C675.347 244.713 676.103 245.33 676.103 246.304C676.103 247.094 675.65 247.661 675.069 248.014C674.094 248.606 673.513 249.183 673.498 251.077V251.136ZM674.134 254.08C674.626 254.08 675.029 253.677 675.029 253.185C675.029 252.692 674.626 252.29 674.134 252.29C673.642 252.29 673.239 252.692 673.239 253.185C673.239 253.677 673.642 254.08 674.134 254.08Z" fill="#5E5E5E"/>
<path d="M343.426 358C343.048 355.912 341.378 354.679 339.33 354.679C336.724 354.679 334.835 356.688 334.835 359.909C334.835 363.131 336.724 365.139 339.33 365.139C341.378 365.139 343.048 363.906 343.426 361.818H342.193C341.895 363.23 340.682 363.986 339.33 363.986C337.48 363.986 336.028 362.554 336.028 359.909C336.028 357.264 337.48 355.832 339.33 355.832C340.682 355.832 341.895 356.588 342.193 358H343.426ZM345.259 365H348.859C350.41 365 351.345 364.125 351.345 362.952C351.345 361.754 350.435 361.107 349.595 360.983C350.455 360.804 351.066 360.322 351.066 359.392C351.066 358.174 350.022 357.364 348.382 357.364H345.259V365ZM346.373 363.926V361.58H348.859C349.664 361.58 350.151 362.062 350.151 362.852C350.151 363.518 349.664 363.926 348.859 363.926H346.373ZM346.373 360.565V358.438H348.382C349.321 358.438 349.893 358.83 349.893 359.472C349.893 360.153 349.321 360.565 348.382 360.565H346.373ZM356.223 365.159C358.291 365.159 359.683 363.588 359.683 361.222C359.683 358.835 358.291 357.264 356.223 357.264C354.155 357.264 352.763 358.835 352.763 361.222C352.763 363.588 354.155 365.159 356.223 365.159ZM356.223 364.105C354.652 364.105 353.936 362.753 353.936 361.222C353.936 359.69 354.652 358.318 356.223 358.318C357.794 358.318 358.51 359.69 358.51 361.222C358.51 362.753 357.794 364.105 356.223 364.105ZM364.676 365.159C366.227 365.159 367.361 364.384 367.719 363.23L366.585 362.912C366.287 363.707 365.596 364.105 364.676 364.105C363.299 364.105 362.349 363.215 362.295 361.58H367.838V361.082C367.838 358.239 366.148 357.264 364.557 357.264C362.488 357.264 361.116 358.895 361.116 361.241C361.116 363.588 362.469 365.159 364.676 365.159ZM362.295 360.565C362.374 359.377 363.214 358.318 364.557 358.318C365.829 358.318 366.645 359.273 366.645 360.565H362.295ZM369.623 365H373.222C374.773 365 375.708 364.125 375.708 362.952C375.708 361.754 374.798 361.107 373.958 360.983C374.818 360.804 375.43 360.322 375.43 359.392C375.43 358.174 374.385 357.364 372.745 357.364H369.623V365ZM370.736 363.926V361.58H373.222C374.028 361.58 374.515 362.062 374.515 362.852C374.515 363.518 374.028 363.926 373.222 363.926H370.736ZM370.736 360.565V358.438H372.745C373.684 358.438 374.256 358.83 374.256 359.472C374.256 360.153 373.684 360.565 372.745 360.565H370.736ZM377.484 367.864H378.657V363.827H378.757C379.015 364.244 379.512 365.159 380.984 365.159C382.893 365.159 384.225 363.628 384.225 361.202C384.225 358.795 382.893 357.264 380.964 357.264C379.473 357.264 379.015 358.179 378.757 358.577H378.618V357.364H377.484V367.864ZM378.637 361.182C378.637 359.472 379.393 358.318 380.825 358.318C382.316 358.318 383.052 359.571 383.052 361.182C383.052 362.812 382.297 364.105 380.825 364.105C379.413 364.105 378.637 362.912 378.637 361.182ZM389.217 365.159C390.768 365.159 391.902 364.384 392.26 363.23L391.126 362.912C390.828 363.707 390.137 364.105 389.217 364.105C387.84 364.105 386.89 363.215 386.836 361.58H392.379V361.082C392.379 358.239 390.689 357.264 389.098 357.264C387.029 357.264 385.657 358.895 385.657 361.241C385.657 363.588 387.01 365.159 389.217 365.159ZM386.836 360.565C386.915 359.377 387.755 358.318 389.098 358.318C390.37 358.318 391.186 359.273 391.186 360.565H386.836ZM398.34 363.409L395.715 357.364H394.164V365H395.337V359.049L397.863 365H398.817L401.343 359.158V365H402.516V357.364H401.005L398.34 363.409ZM407.865 365.159C409.417 365.159 410.55 364.384 410.908 363.23L409.775 362.912C409.476 363.707 408.785 364.105 407.865 364.105C406.488 364.105 405.539 363.215 405.484 361.58H411.027V361.082C411.027 358.239 409.337 357.264 407.746 357.264C405.678 357.264 404.306 358.895 404.306 361.241C404.306 363.588 405.658 365.159 407.865 365.159ZM405.484 360.565C405.564 359.377 406.404 358.318 407.746 358.318C409.019 358.318 409.834 359.273 409.834 360.565H405.484ZM413.985 357.364H412.812V365H413.985V361.739H417.645V365H418.818V357.364H417.645V360.645H413.985V357.364ZM422.134 357.364H420.961V365H422.134V361.739H425.793V365H426.966V357.364H425.793V360.645H422.134V357.364ZM432.211 365.159C434.279 365.159 435.672 363.588 435.672 361.222C435.672 358.835 434.279 357.264 432.211 357.264C430.143 357.264 428.751 358.835 428.751 361.222C428.751 363.588 430.143 365.159 432.211 365.159ZM432.211 364.105C430.64 364.105 429.924 362.753 429.924 361.222C429.924 359.69 430.64 358.318 432.211 358.318C433.782 358.318 434.498 359.69 434.498 361.222C434.498 362.753 433.782 364.105 432.211 364.105ZM440.724 365H441.122C442.812 365 443.299 363.688 443.409 361.182L443.528 358.457H446.332V365H447.505V357.364H442.414L442.275 360.744C442.176 363.31 441.917 363.906 441.002 363.906H440.724V365ZM450.831 363.27V357.364H449.658V365H451.03L454.689 359.094V365H455.862V357.364H454.51L450.831 363.27ZM461.949 367.864H463.122V363.827H463.222C463.48 364.244 463.977 365.159 465.449 365.159C467.358 365.159 468.69 363.628 468.69 361.202C468.69 358.795 467.358 357.264 465.429 357.264C463.938 357.264 463.48 358.179 463.222 358.577H463.082V357.364H461.949V367.864ZM463.102 361.182C463.102 359.472 463.858 358.318 465.29 358.318C466.781 358.318 467.517 359.571 467.517 361.182C467.517 362.812 466.761 364.105 465.29 364.105C463.878 364.105 463.102 362.912 463.102 361.182ZM472.727 365.179C474.06 365.179 474.756 364.463 474.994 363.966H475.054V365H476.227V359.969C476.227 357.543 474.378 357.264 473.403 357.264C472.25 357.264 470.938 357.662 470.341 359.054L471.455 359.452C471.713 358.895 472.325 358.298 473.443 358.298C474.522 358.298 475.054 358.87 475.054 359.849V359.889C475.054 360.456 474.477 360.406 473.085 360.585C471.668 360.769 470.122 361.082 470.122 362.832C470.122 364.324 471.276 365.179 472.727 365.179ZM472.906 364.125C471.972 364.125 471.295 363.707 471.295 362.892C471.295 361.997 472.111 361.719 473.026 361.599C473.523 361.54 474.855 361.401 475.054 361.162V362.236C475.054 363.19 474.298 364.125 472.906 364.125ZM477.892 363.051C477.931 364.304 479.129 365.159 480.755 365.159C482.426 365.159 483.639 364.264 483.639 362.872C483.639 361.918 483.067 361.142 482.207 361.082V361.003C482.933 360.779 483.48 360.252 483.48 359.392C483.48 358.184 482.445 357.264 480.835 357.264C479.244 357.264 478.11 358.139 478.07 359.372H479.303C479.338 358.741 479.999 358.298 480.894 358.298C481.784 358.298 482.286 358.751 482.286 359.432C482.286 360.068 481.849 360.545 480.914 360.545H479.602V361.599H480.914C481.849 361.599 482.445 362.112 482.445 362.872C482.445 363.742 481.675 364.105 480.735 364.105C479.816 364.105 479.199 363.742 479.144 363.051H477.892ZM485.287 365H488.886C490.437 365 491.372 364.125 491.372 362.952C491.372 361.754 490.462 361.107 489.622 360.983C490.482 360.804 491.094 360.322 491.094 359.392C491.094 358.174 490.05 357.364 488.409 357.364H485.287V365ZM486.4 363.926V361.58H488.886C489.692 361.58 490.179 362.062 490.179 362.852C490.179 363.518 489.692 363.926 488.886 363.926H486.4ZM486.4 360.565V358.438H488.409C489.349 358.438 489.92 358.83 489.92 359.472C489.92 360.153 489.349 360.565 488.409 360.565H486.4ZM494.321 363.27V357.364H493.148V365H494.52L498.179 359.094V365H499.353V357.364H498L494.321 363.27ZM501.502 365H505.101C506.652 365 507.587 364.125 507.587 362.952C507.587 361.754 506.677 361.107 505.837 360.983C506.697 360.804 507.308 360.322 507.308 359.392C507.308 358.174 506.264 357.364 504.624 357.364H501.502V365ZM502.615 363.926V361.58H505.101C505.906 361.58 506.394 362.062 506.394 362.852C506.394 363.518 505.906 363.926 505.101 363.926H502.615ZM502.615 360.565V358.438H504.624C505.563 358.438 506.135 358.83 506.135 359.472C506.135 360.153 505.563 360.565 504.624 360.565H502.615ZM511.61 365.179C512.942 365.179 513.638 364.463 513.877 363.966H513.937V365H515.11V359.969C515.11 357.543 513.261 357.264 512.286 357.264C511.133 357.264 509.82 357.662 509.224 359.054L510.337 359.452C510.596 358.895 511.207 358.298 512.326 358.298C513.405 358.298 513.937 358.87 513.937 359.849V359.889C513.937 360.456 513.36 360.406 511.968 360.585C510.551 360.769 509.005 361.082 509.005 362.832C509.005 364.324 510.158 365.179 511.61 365.179ZM511.789 364.125C510.854 364.125 510.178 363.707 510.178 362.892C510.178 361.997 510.994 361.719 511.908 361.599C512.406 361.54 513.738 361.401 513.937 361.162V362.236C513.937 363.19 513.181 364.125 511.789 364.125ZM520.453 365.159C522.004 365.159 523.138 364.384 523.496 363.23L522.362 362.912C522.064 363.707 521.373 364.105 520.453 364.105C519.076 364.105 518.127 363.215 518.072 361.58H523.615V361.082C523.615 358.239 521.925 357.264 520.334 357.264C518.266 357.264 516.894 358.895 516.894 361.241C516.894 363.588 518.246 365.159 520.453 365.159ZM518.072 360.565C518.151 359.377 518.992 358.318 520.334 358.318C521.607 358.318 522.422 359.273 522.422 360.565H518.072ZM524.689 358.457H527.215V365H528.388V358.457H530.894V357.364H524.689V358.457ZM535.311 365.159C537.001 365.159 538.115 364.125 538.314 362.773H537.14C536.922 363.608 536.226 364.105 535.311 364.105C533.919 364.105 533.024 362.952 533.024 361.182C533.024 359.452 533.939 358.318 535.311 358.318C536.345 358.318 536.961 358.955 537.14 359.651H538.314C538.115 358.219 536.902 357.264 535.291 357.264C533.223 357.264 531.851 358.895 531.851 361.222C531.851 363.509 533.163 365.159 535.311 365.159ZM544.623 365H545.736V357.364H542.594C540.949 357.364 539.949 358.224 539.949 359.631C539.949 360.68 540.476 361.425 541.396 361.739L539.532 365H540.805L542.574 361.898H544.623V365ZM544.623 360.804H542.455C541.625 360.804 541.123 360.362 541.123 359.631C541.123 358.89 541.68 358.438 542.594 358.438H544.623V360.804ZM339.25 380.409L336.625 374.364H335.074V382H336.247V376.049L338.773 382H339.727L342.253 376.158V382H343.426V374.364H341.915L339.25 380.409ZM348.676 382.159C350.744 382.159 352.136 380.588 352.136 378.222C352.136 375.835 350.744 374.264 348.676 374.264C346.608 374.264 345.216 375.835 345.216 378.222C345.216 380.588 346.608 382.159 348.676 382.159ZM348.676 381.105C347.105 381.105 346.389 379.753 346.389 378.222C346.389 376.69 347.105 375.318 348.676 375.318C350.247 375.318 350.963 376.69 350.963 378.222C350.963 379.753 350.247 381.105 348.676 381.105ZM358.521 382H359.635V374.364H356.493C354.847 374.364 353.848 375.224 353.848 376.631C353.848 377.68 354.375 378.425 355.295 378.739L353.43 382H354.703L356.473 378.898H358.521V382ZM358.521 377.804H356.354C355.523 377.804 355.021 377.362 355.021 376.631C355.021 375.89 355.578 375.438 356.493 375.438H358.521V377.804ZM364.911 384.188H366.084V382H371.732V384.188H372.905V380.906H371.732V374.364H366.88L366.621 377.386C366.437 379.524 366.164 380.26 365.547 380.906H364.911V384.188ZM366.88 380.906C367.417 380.2 367.61 378.982 367.775 377.386L367.973 375.457H370.559V380.906H366.88ZM377.565 382.159C379.633 382.159 381.025 380.588 381.025 378.222C381.025 375.835 379.633 374.264 377.565 374.264C375.497 374.264 374.105 375.835 374.105 378.222C374.105 380.588 375.497 382.159 377.565 382.159ZM377.565 381.105C375.994 381.105 375.278 379.753 375.278 378.222C375.278 376.69 375.994 375.318 377.565 375.318C379.136 375.318 379.852 376.69 379.852 378.222C379.852 379.753 379.136 381.105 377.565 381.105ZM388.702 374.364H387.529V378.237C386.962 378.401 386.381 378.5 385.68 378.5C384.725 378.5 383.989 377.963 383.989 376.79V374.344H382.816V376.79C382.816 378.659 383.95 379.594 385.68 379.594C386.401 379.594 386.977 379.499 387.529 379.335V382H388.702V374.364ZM392.028 377.128V374.364H390.855V382H394.057C395.847 382 396.821 380.906 396.821 379.534C396.821 378.142 395.847 377.128 394.057 377.128H392.028ZM392.028 378.222H394.057C394.987 378.222 395.648 378.788 395.648 379.594C395.648 380.364 394.987 380.906 394.057 380.906H392.028V378.222ZM400.138 379.136H401.331V379.077C401.351 377.844 401.67 377.307 402.545 376.76C403.42 376.228 403.937 375.462 403.937 374.364C403.937 372.812 402.803 371.679 401.053 371.679C399.442 371.679 398.165 372.673 398.09 374.364H399.343C399.417 373.19 400.238 372.713 401.053 372.713C401.988 372.713 402.743 373.33 402.743 374.304C402.743 375.094 402.291 375.661 401.709 376.014C400.735 376.606 400.153 377.183 400.138 379.077V379.136ZM400.775 382.08C401.267 382.08 401.67 381.677 401.67 381.185C401.67 380.692 401.267 380.29 400.775 380.29C400.282 380.29 399.88 380.692 399.88 381.185C399.88 381.677 400.282 382.08 400.775 382.08Z" fill="#5E5E5E"/>
<path d="M499.332 535.818V539.219C499.332 541.466 500.605 542.301 502.713 542.301C503.946 542.301 504.707 542.142 505.537 541.893V546H506.77V535.818H505.537V540.775C504.667 541.028 503.742 541.188 502.713 541.188C501.401 541.188 500.565 540.73 500.565 539.219V535.818H499.332ZM508.644 539.457H511.17V546H512.343V539.457H514.849V538.364H508.644V539.457ZM519.266 546.159C521.334 546.159 522.726 544.588 522.726 542.222C522.726 539.835 521.334 538.264 519.266 538.264C517.198 538.264 515.806 539.835 515.806 542.222C515.806 544.588 517.198 546.159 519.266 546.159ZM519.266 545.105C517.695 545.105 516.979 543.753 516.979 542.222C516.979 540.69 517.695 539.318 519.266 539.318C520.837 539.318 521.553 540.69 521.553 542.222C521.553 543.753 520.837 545.105 519.266 545.105ZM527.639 548.188H528.813V546H534.46V548.188H535.634V544.906H534.46V538.364H529.608L529.35 541.386C529.166 543.524 528.892 544.26 528.276 544.906H527.639V548.188ZM529.608 544.906C530.145 544.2 530.339 542.982 530.503 541.386L530.702 539.457H533.287V544.906H529.608ZM540.293 546.159C542.362 546.159 543.754 544.588 543.754 542.222C543.754 539.835 542.362 538.264 540.293 538.264C538.225 538.264 536.833 539.835 536.833 542.222C536.833 544.588 538.225 546.159 540.293 546.159ZM540.293 545.105C538.722 545.105 538.006 543.753 538.006 542.222C538.006 540.69 538.722 539.318 540.293 539.318C541.864 539.318 542.58 540.69 542.58 542.222C542.58 543.753 541.864 545.105 540.293 545.105ZM544.868 546H545.266C546.956 546 547.444 544.688 547.553 542.182L547.672 539.457H550.476V546H551.65V538.364H546.559L546.42 541.744C546.32 544.31 546.062 544.906 545.147 544.906H544.868V546ZM553.325 546H554.737L557.342 542.719H557.939V546H559.112V542.719H559.709L562.294 546H563.706L560.623 542.122L563.666 538.364H562.274L559.729 541.625H559.112V538.364H557.939V541.625H557.302L554.757 538.364H553.365L556.427 542.122L553.325 546ZM568.27 546.159C569.821 546.159 570.954 545.384 571.312 544.23L570.179 543.912C569.881 544.707 569.189 545.105 568.27 545.105C566.893 545.105 565.943 544.215 565.888 542.58H571.432V542.082C571.432 539.239 569.741 538.264 568.15 538.264C566.082 538.264 564.71 539.895 564.71 542.241C564.71 544.588 566.062 546.159 568.27 546.159ZM565.888 541.565C565.968 540.377 566.808 539.318 568.15 539.318C569.423 539.318 570.238 540.273 570.238 541.565H565.888ZM574.39 538.364H573.216V546H574.39V542.739H578.049V546H579.222V538.364H578.049V541.645H574.39V538.364ZM586.058 548.864C587.117 548.864 587.863 548.302 588.305 547.114L591.557 538.384L590.274 538.364L588.166 544.449H588.086L585.979 538.364H584.706L587.53 546.04L587.311 546.636C586.883 547.8 586.356 547.909 585.501 547.69L585.203 548.724C585.322 548.784 585.66 548.864 586.058 548.864ZM597.285 544.409L594.66 538.364H593.109V546H594.282V540.049L596.808 546H597.762L600.288 540.158V546H601.461V538.364H599.95L597.285 544.409ZM606.811 546.159C608.362 546.159 609.495 545.384 609.853 544.23L608.72 543.912C608.422 544.707 607.73 545.105 606.811 545.105C605.434 545.105 604.484 544.215 604.429 542.58H609.973V542.082C609.973 539.239 608.282 538.264 606.691 538.264C604.623 538.264 603.251 539.895 603.251 542.241C603.251 544.588 604.603 546.159 606.811 546.159ZM604.429 541.565C604.509 540.377 605.349 539.318 606.691 539.318C607.964 539.318 608.779 540.273 608.779 541.565H604.429ZM611.047 539.457H613.572V546H614.745V539.457H617.251V538.364H611.047V539.457ZM620.136 541.128V538.364H618.963V546H622.164C623.954 546 624.928 544.906 624.928 543.534C624.928 542.142 623.954 541.128 622.164 541.128H620.136ZM620.136 542.222H622.164C623.094 542.222 623.755 542.788 623.755 543.594C623.755 544.364 623.094 544.906 622.164 544.906H620.136V542.222ZM630.652 548.864H631.825V544.827H631.925C632.183 545.244 632.68 546.159 634.152 546.159C636.061 546.159 637.393 544.628 637.393 542.202C637.393 539.795 636.061 538.264 634.132 538.264C632.641 538.264 632.183 539.179 631.925 539.577H631.786V538.364H630.652V548.864ZM631.805 542.182C631.805 540.472 632.561 539.318 633.993 539.318C635.484 539.318 636.22 540.571 636.22 542.182C636.22 543.812 635.464 545.105 633.993 545.105C632.581 545.105 631.805 543.912 631.805 542.182ZM642.385 546.159C643.936 546.159 645.07 545.384 645.428 544.23L644.294 543.912C643.996 544.707 643.305 545.105 642.385 545.105C641.008 545.105 640.058 544.215 640.004 542.58H645.547V542.082C645.547 539.239 643.857 538.264 642.266 538.264C640.197 538.264 638.825 539.895 638.825 542.241C638.825 544.588 640.178 546.159 642.385 546.159ZM640.004 541.565C640.083 540.377 640.923 539.318 642.266 539.318C643.538 539.318 644.354 540.273 644.354 541.565H640.004ZM652.999 535.5C652.626 535.813 652.07 535.813 651.289 535.808C651.036 535.808 650.757 535.808 650.454 535.818C648.127 535.878 646.974 537.648 646.974 541.048V541.864C646.974 544.688 648.346 546.159 650.394 546.159C652.438 546.159 653.795 544.678 653.795 542.281C653.795 539.875 652.418 538.602 650.633 538.602C649.584 538.602 648.604 539.04 648.087 539.994H647.988C648.147 538.026 648.883 536.972 650.474 536.912C651.886 536.852 652.9 536.892 653.596 536.216L652.999 535.5ZM650.394 545.105C649.002 545.105 648.147 543.991 648.147 542.281C648.172 540.611 649.012 539.656 650.374 539.656C651.771 539.656 652.621 540.611 652.621 542.281C652.621 544.001 651.776 545.105 650.394 545.105ZM658.791 546.159C660.342 546.159 661.476 545.384 661.834 544.23L660.7 543.912C660.402 544.707 659.711 545.105 658.791 545.105C657.414 545.105 656.464 544.215 656.41 542.58H661.953V542.082C661.953 539.239 660.263 538.264 658.672 538.264C656.604 538.264 655.232 539.895 655.232 542.241C655.232 544.588 656.584 546.159 658.791 546.159ZM656.41 541.565C656.489 540.377 657.33 539.318 658.672 539.318C659.945 539.318 660.76 540.273 660.76 541.565H656.41ZM664.911 538.364H663.738V546H664.911V542.739H668.57V546H669.744V538.364H668.57V541.645H664.911V538.364ZM674.989 546.159C677.057 546.159 678.449 544.588 678.449 542.222C678.449 539.835 677.057 538.264 674.989 538.264C672.92 538.264 671.528 539.835 671.528 542.222C671.528 544.588 672.92 546.159 674.989 546.159ZM674.989 545.105C673.418 545.105 672.702 543.753 672.702 542.222C672.702 540.69 673.418 539.318 674.989 539.318C676.56 539.318 677.276 540.69 677.276 542.222C677.276 543.753 676.56 545.105 674.989 545.105ZM680.24 546H681.413V542.778H682.467L684.973 546H686.484L683.362 542.043L686.444 538.364H684.933L682.189 541.685H681.413V538.364H680.24V546ZM691.697 546H695.296C696.847 546 697.782 545.125 697.782 543.952C697.782 542.754 696.872 542.107 696.032 541.983C696.892 541.804 697.504 541.322 697.504 540.392C697.504 539.174 696.46 538.364 694.819 538.364H691.697V546ZM692.811 544.926V542.58H695.296C696.102 542.58 696.589 543.062 696.589 543.852C696.589 544.518 696.102 544.926 695.296 544.926H692.811ZM692.811 541.565V539.438H694.819C695.759 539.438 696.33 539.83 696.33 540.472C696.33 541.153 695.759 541.565 694.819 541.565H692.811ZM703.237 543.912H708.03V546H709.203V543.912H710.595V542.818H709.203V535.818H707.712L703.237 542.898V543.912ZM708.03 542.818H704.57V542.739L707.95 537.389H708.03V542.818ZM503.25 561.409L500.625 555.364H499.074V563H500.247V557.049L502.773 563H503.727L506.253 557.158V563H507.426V555.364H505.915L503.25 561.409ZM512.776 563.159C514.327 563.159 515.46 562.384 515.818 561.23L514.685 560.912C514.386 561.707 513.695 562.105 512.776 562.105C511.398 562.105 510.449 561.215 510.394 559.58H515.938V559.082C515.938 556.239 514.247 555.264 512.656 555.264C510.588 555.264 509.216 556.895 509.216 559.241C509.216 561.588 510.568 563.159 512.776 563.159ZM510.394 558.565C510.474 557.377 511.314 556.318 512.656 556.318C513.929 556.318 514.744 557.273 514.744 558.565H510.394ZM520.825 563.159C522.515 563.159 523.629 562.125 523.827 560.773H522.654C522.435 561.608 521.739 562.105 520.825 562.105C519.433 562.105 518.538 560.952 518.538 559.182C518.538 557.452 519.452 556.318 520.825 556.318C521.859 556.318 522.475 556.955 522.654 557.651H523.827C523.629 556.219 522.415 555.264 520.805 555.264C518.737 555.264 517.364 556.895 517.364 559.222C517.364 561.509 518.677 563.159 520.825 563.159ZM530.136 563H531.25V555.364H528.108C526.462 555.364 525.463 556.224 525.463 557.631C525.463 558.68 525.99 559.425 526.91 559.739L525.045 563H526.318L528.088 559.898H530.136V563ZM530.136 558.804H527.969C527.138 558.804 526.636 558.362 526.636 557.631C526.636 556.89 527.193 556.438 528.108 556.438H530.136V558.804ZM539.41 555.364H538.236V561.906H534.577V555.364H533.404V563H539.31V565.466H540.483V561.906H539.41V555.364ZM544.538 563.179C545.87 563.179 546.566 562.463 546.805 561.966H546.865V563H548.038V557.969C548.038 555.543 546.188 555.264 545.214 555.264C544.061 555.264 542.748 555.662 542.151 557.054L543.265 557.452C543.524 556.895 544.135 556.298 545.254 556.298C546.333 556.298 546.865 556.87 546.865 557.849V557.889C546.865 558.456 546.288 558.406 544.896 558.585C543.479 558.769 541.933 559.082 541.933 560.832C541.933 562.324 543.086 563.179 544.538 563.179ZM544.717 562.125C543.782 562.125 543.106 561.707 543.106 560.892C543.106 559.997 543.921 559.719 544.836 559.599C545.333 559.54 546.666 559.401 546.865 559.162V560.236C546.865 561.19 546.109 562.125 544.717 562.125ZM551.711 560.136H552.904V560.077C552.924 558.844 553.242 558.307 554.117 557.76C554.992 557.228 555.509 556.462 555.509 555.364C555.509 553.812 554.375 552.679 552.625 552.679C551.015 552.679 549.737 553.673 549.662 555.364H550.915C550.99 554.19 551.81 553.713 552.625 553.713C553.56 553.713 554.316 554.33 554.316 555.304C554.316 556.094 553.863 556.661 553.282 557.014C552.307 557.606 551.725 558.183 551.711 560.077V560.136ZM552.347 563.08C552.839 563.08 553.242 562.677 553.242 562.185C553.242 561.692 552.839 561.29 552.347 561.29C551.855 561.29 551.452 561.692 551.452 562.185C551.452 562.677 551.855 563.08 552.347 563.08Z" fill="#5E5E5E"/>
<path d="M300.849 626.818H293.253V637H294.486V627.912H299.616V637H300.849V626.818ZM306.28 637.159C308.348 637.159 309.74 635.588 309.74 633.222C309.74 630.835 308.348 629.264 306.28 629.264C304.211 629.264 302.819 630.835 302.819 633.222C302.819 635.588 304.211 637.159 306.28 637.159ZM306.28 636.105C304.709 636.105 303.993 634.753 303.993 633.222C303.993 631.69 304.709 630.318 306.28 630.318C307.851 630.318 308.567 631.69 308.567 633.222C308.567 634.753 307.851 636.105 306.28 636.105ZM311.531 639.864H312.704V635.827H312.804C313.062 636.244 313.559 637.159 315.031 637.159C316.94 637.159 318.272 635.628 318.272 633.202C318.272 630.795 316.94 629.264 315.011 629.264C313.52 629.264 313.062 630.179 312.804 630.577H312.664V629.364H311.531V639.864ZM312.684 633.182C312.684 631.472 313.44 630.318 314.872 630.318C316.363 630.318 317.099 631.571 317.099 633.182C317.099 634.812 316.343 636.105 314.872 636.105C313.46 636.105 312.684 634.912 312.684 633.182ZM322.309 637.179C323.642 637.179 324.338 636.463 324.576 635.966H324.636V637H325.809V631.969C325.809 629.543 323.96 629.264 322.985 629.264C321.832 629.264 320.52 629.662 319.923 631.054L321.037 631.452C321.295 630.895 321.907 630.298 323.025 630.298C324.104 630.298 324.636 630.87 324.636 631.849V631.889C324.636 632.456 324.059 632.406 322.667 632.585C321.25 632.769 319.704 633.082 319.704 634.832C319.704 636.324 320.858 637.179 322.309 637.179ZM322.488 636.125C321.554 636.125 320.877 635.707 320.877 634.892C320.877 633.997 321.693 633.719 322.608 633.599C323.105 633.54 324.437 633.401 324.636 633.162V634.236C324.636 635.19 323.88 636.125 322.488 636.125ZM331.212 637H331.61C333.3 637 333.787 635.688 333.897 633.182L334.016 630.457H336.82V637H337.993V629.364H332.903L332.763 632.744C332.664 635.31 332.405 635.906 331.491 635.906H331.212V637ZM341.319 635.27V629.364H340.146V637H341.518L345.177 631.094V637H346.351V629.364H344.998L341.319 635.27ZM352.437 639.864H353.61V635.827H353.71C353.968 636.244 354.466 637.159 355.937 637.159C357.846 637.159 359.179 635.628 359.179 633.202C359.179 630.795 357.846 629.264 355.917 629.264C354.426 629.264 353.968 630.179 353.71 630.577H353.571V629.364H352.437V639.864ZM353.591 633.182C353.591 631.472 354.346 630.318 355.778 630.318C357.27 630.318 358.005 631.571 358.005 633.182C358.005 634.812 357.25 636.105 355.778 636.105C354.366 636.105 353.591 634.912 353.591 633.182ZM364.17 637.159C365.721 637.159 366.855 636.384 367.213 635.23L366.079 634.912C365.781 635.707 365.09 636.105 364.17 636.105C362.793 636.105 361.843 635.215 361.789 633.58H367.332V633.082C367.332 630.239 365.642 629.264 364.051 629.264C361.983 629.264 360.61 630.895 360.61 633.241C360.61 635.588 361.963 637.159 364.17 637.159ZM361.789 632.565C361.868 631.377 362.708 630.318 364.051 630.318C365.324 630.318 366.139 631.273 366.139 632.565H361.789ZM374.784 626.5C374.412 626.813 373.855 626.813 373.074 626.808C372.821 626.808 372.542 626.808 372.239 626.818C369.912 626.878 368.759 628.648 368.759 632.048V632.864C368.759 635.688 370.131 637.159 372.179 637.159C374.223 637.159 375.58 635.678 375.58 633.281C375.58 630.875 374.203 629.602 372.418 629.602C371.369 629.602 370.39 630.04 369.873 630.994H369.773C369.932 629.026 370.668 627.972 372.259 627.912C373.671 627.852 374.685 627.892 375.381 627.216L374.784 626.5ZM372.179 636.105C370.787 636.105 369.932 634.991 369.932 633.281C369.957 631.611 370.797 630.656 372.159 630.656C373.556 630.656 374.407 631.611 374.407 633.281C374.407 635.001 373.561 636.105 372.179 636.105ZM380.576 637.159C382.127 637.159 383.261 636.384 383.619 635.23L382.485 634.912C382.187 635.707 381.496 636.105 380.576 636.105C379.199 636.105 378.25 635.215 378.195 633.58H383.738V633.082C383.738 630.239 382.048 629.264 380.457 629.264C378.389 629.264 377.017 630.895 377.017 633.241C377.017 635.588 378.369 637.159 380.576 637.159ZM378.195 632.565C378.275 631.377 379.115 630.318 380.457 630.318C381.73 630.318 382.545 631.273 382.545 632.565H378.195ZM386.696 629.364H385.523V637H386.696V633.739H390.355V637H391.529V629.364H390.355V632.645H386.696V629.364ZM393.672 637H394.845V633.778H395.899L398.404 637H399.916L396.794 633.043L399.876 629.364H398.365L395.62 632.685H394.845V629.364H393.672V637ZM401.947 639.864C403.006 639.864 403.751 639.302 404.194 638.114L407.445 629.384L406.163 629.364L404.055 635.449H403.975L401.867 629.364H400.594L403.418 637.04L403.2 637.636C402.772 638.8 402.245 638.909 401.39 638.69L401.092 639.724C401.211 639.784 401.549 639.864 401.947 639.864ZM416.037 637.159C417.728 637.159 418.841 636.125 419.04 634.773H417.867C417.648 635.608 416.952 636.105 416.037 636.105C414.645 636.105 413.751 634.952 413.751 633.182C413.751 631.452 414.665 630.318 416.037 630.318C417.072 630.318 417.688 630.955 417.867 631.651H419.04C418.841 630.219 417.628 629.264 416.018 629.264C413.949 629.264 412.577 630.895 412.577 633.222C412.577 635.509 413.89 637.159 416.037 637.159ZM421.929 635.27V629.364H420.756V637H422.128L425.787 631.094V637H426.96V629.364H425.608L421.929 635.27ZM428.294 639.188H429.467V637H435.115V639.188H436.288V635.906H435.115V629.364H430.262L430.004 632.386C429.82 634.524 429.547 635.26 428.93 635.906H428.294V639.188ZM430.262 635.906C430.799 635.2 430.993 633.982 431.157 632.386L431.356 630.457H433.941V635.906H430.262ZM441.047 637.159C442.598 637.159 443.732 636.384 444.09 635.23L442.956 634.912C442.658 635.707 441.967 636.105 441.047 636.105C439.67 636.105 438.72 635.215 438.666 633.58H444.209V633.082C444.209 630.239 442.519 629.264 440.928 629.264C438.86 629.264 437.487 630.895 437.487 633.241C437.487 635.588 438.84 637.159 441.047 637.159ZM438.666 632.565C438.745 631.377 439.585 630.318 440.928 630.318C442.2 630.318 443.016 631.273 443.016 632.565H438.666ZM445.283 630.457H447.808V637H448.982V630.457H451.487V629.364H445.283V630.457ZM454.372 632.128V629.364H453.199V637H456.401C458.19 637 459.165 635.906 459.165 634.534C459.165 633.142 458.19 632.128 456.401 632.128H454.372ZM454.372 633.222H456.401C457.33 633.222 457.991 633.788 457.991 634.594C457.991 635.364 457.33 635.906 456.401 635.906H454.372V633.222ZM462.482 634.136H463.675V634.077C463.695 632.844 464.013 632.307 464.888 631.76C465.763 631.228 466.28 630.462 466.28 629.364C466.28 627.812 465.147 626.679 463.397 626.679C461.786 626.679 460.508 627.673 460.434 629.364H461.687C461.761 628.19 462.581 627.713 463.397 627.713C464.331 627.713 465.087 628.33 465.087 629.304C465.087 630.094 464.635 630.661 464.053 631.014C463.079 631.606 462.497 632.183 462.482 634.077V634.136ZM463.118 637.08C463.611 637.08 464.013 636.677 464.013 636.185C464.013 635.692 463.611 635.29 463.118 635.29C462.626 635.29 462.224 635.692 462.224 636.185C462.224 636.677 462.626 637.08 463.118 637.08Z" fill="#5E5E5E"/>
</svg>
