<svg width="30" height="30" viewBox="0 0 30 30" fill="none" xmlns="http://www.w3.org/2000/svg">
<path d="M15 27.5C13.1101 27.5054 11.244 27.0777 9.545 26.25C8.92319 25.9476 8.32741 25.5943 7.76375 25.1938L7.5925 25.0688C6.04228 23.9245 4.77484 22.4403 3.8875 20.73C2.96967 18.9598 2.49364 16.9939 2.49994 15C2.49994 8.09644 8.09644 2.5 15 2.5C21.9036 2.5 27.5001 8.09644 27.5001 15C27.5063 16.993 27.0307 18.958 26.1138 20.7275C25.2276 22.4368 23.962 23.9205 22.4138 25.065C21.8297 25.4925 21.2099 25.8689 20.5613 26.19L20.4613 26.24C18.7612 27.0721 16.8928 27.5032 15 27.5ZM15 21.25C13.1268 21.2463 11.4096 22.2925 10.5538 23.9587C13.3555 25.3465 16.6445 25.3465 19.4463 23.9587V23.9525C18.5894 22.2881 16.872 21.2443 15 21.25ZM15 18.75C17.7076 18.7535 20.2043 20.2126 21.5363 22.57L21.555 22.5537L21.5725 22.5387L21.5513 22.5575L21.5388 22.5675C24.7 19.8364 25.8304 15.4279 24.3733 11.5126C22.9163 7.59735 19.1789 5.00039 15.0013 5.00039C10.8236 5.00039 7.08624 7.59735 5.62919 11.5126C4.17214 15.4279 5.30251 19.8364 8.46375 22.5675C9.79658 20.2113 12.293 18.7533 15 18.75ZM15 17.5C12.2386 17.5 10 15.2614 10 12.5C10 9.73858 12.2386 7.5 15 7.5C17.7614 7.5 20 9.73858 20 12.5C20 13.8261 19.4732 15.0979 18.5355 16.0355C17.5979 16.9732 16.3261 17.5 15 17.5ZM15 10C13.6193 10 12.5 11.1193 12.5 12.5C12.5 13.8807 13.6193 15 15 15C16.3807 15 17.5 13.8807 17.5 12.5C17.5 11.1193 16.3807 10 15 10Z" fill="#3B3B3B"/>
</svg>
